<svg xmlns="http://www.w3.org/2000/svg" xmlns:xlink="http://www.w3.org/1999/xlink" width="1088" height="843.75" viewBox="0 0 1088 843.75">
  <defs>
    <clipPath id="clip-Web_1920_1">
      <rect width="1088" height="843.75"/>
    </clipPath>
  </defs>
  <g id="Web_1920_1" data-name="Web 1920 – 1" clip-path="url(#clip-Web_1920_1)">
    <rect width="1088" height="843.75" fill="#3d3ddb"/>
    <g id="g3856" transform="translate(729.58 -98.081)">
      <path id="path3858" d="M133.566,106.747l-2.135-1.9-.791-.633.079-.158-.237-1.265L129.3,98.521a10.968,10.968,0,0,0-1.345-1.977c-.237-.237-.158-.949-.158-.949l-.237-4.192-1.028-1.424-.158-.949-.158-3.638-.949-3.875s.237-1.107.237-1.345c0-.316.633-3.717.633-3.717l-.4-2.768-1.265-4.9-.4-1.345.4-2.452.316-4.271L124,57.236a8.98,8.98,0,0,1-.949-.949h-.079c-.71-.795-1.661-1.665-1.739-1.824-.158-.237-3.56-2.926-3.56-2.926L114.9,50.272l-.633-.633.079-1.661a1.863,1.863,0,0,0,.87-1.582c-.158-.633-.158-1.345-.237-1.74a1.552,1.552,0,0,1,.079-1.186,1.489,1.489,0,0,0,.237-1.186,2.985,2.985,0,0,0-.475-1.107,1.835,1.835,0,0,0-.237-1.107,2.626,2.626,0,0,0-.87-.87l.079-1.819-.237-2.768-.633-4.113-1.345-2.926-2.452-1.74-2.531-.475-3.243-.791-2.373,1.107-2.768.079L97.105,27.1s-.712.87-.791,1.028l-.4,1.186.316.4-.158.475-1.5,3.559-.237,2.135.4.475L94.5,37.459l-1.582,1.819-.158,1.5.633.158.949.237-.237.791.237.554-.079.712v2.926l.791.633,3.559.712-1.424,1.9,1.345-1.74-1.819.158L94.021,47.5s-2.135-.633-2.373-.633c-.158,0-1.345.712-1.582.791a7.645,7.645,0,0,0-.949.554l-2.056.316a6.244,6.244,0,0,1-1.819-.554,6.683,6.683,0,0,0-1.424-.4,12.768,12.768,0,0,1-2.215-.949,11.865,11.865,0,0,1-1.186-1.661s-1.9-.237-2.215-.237a9.142,9.142,0,0,1-1.582-1.028l-.949-2.056a11.168,11.168,0,0,0-2.373-.633c-.319.074-.873-.638-1.112-.875l-.079-.475v.316h-.079l.158-2.215S70.843,35,70.606,34.765c-.158-.237-1.424-3.322-1.9-4.271a16.269,16.269,0,0,1-.949-2.531l-.633-1.345V26.54l.158.949-.554-3.164.158-3.559.4-2.768.87-2.847.079-.949V11.117l.316-.316-.158-.87s.079-4.034.158-4.192a3.26,3.26,0,0,0-.079-.949h-.712l-.237.4-.634,1.582L66.573,5.5l-.4-1.265-.315-.712L65.622,2.26,65.7.994l-.4-1.028h-.871l-.4,1.028L63.725.757l-.475,1.107L63.646,4l-.4,3.48-.633,1.582-.237-.554-.791-.554-.475.237L61.669,9.3a8.563,8.563,0,0,1-.554,1.424,13.97,13.97,0,0,0-.633,1.977l-.316,2.531-.475,1.5-.712.791-.237,1.424-.316.237-.791,2.056-1.028,2.215,2.61.633-2.61-.633-.475.475L50.28,32.868s-2.452,3.322-2.61,3.48a4.89,4.89,0,0,0-.316,1.265s-.079.791-.079.633c0-.237-.949.237-.949.237l-1.5,1.028-.633,1.107a12.353,12.353,0,0,1-1.345-.554,3.859,3.859,0,0,0-1.345.079c-.158.079-.237.791-.237.791l-1.345.633-.87-.4-.949.158-.633-1.265.475,1.028a1.148,1.148,0,0,1,.475.079l.87-.712v-.712l-.237-1.74L39.682,35,40,33.738l.079-1.661-.712-1.265-.237-.4.079-1.345.237-1.345-.158-.712L38.1,25.671l-.712-1.582-.158-.475.158-.712.554-.712a5.25,5.25,0,0,1,.079-1.028,3.885,3.885,0,0,0-.237-1.186,15.938,15.938,0,0,0-1.5-1.028c-.237-.158-.87.158-.87.158l-1.661-.238L30.429,18l-1.9-.316-1.819.633-2.768.4-1.9.791L20.068,22.19l-.791,2.61-.4,4.429.4,2.926,1.74,4.034,1.9,1.9.87.4-.237-.079.237.4-.475.237-.633,1.028-.949,1.345-.158,1.345L19.909,44.1l-.712,1.9-.633.634L17.853,49.4l-1.5,2.134-1.186,2.295-1.028,3-1.186,1.583L12.4,61.18l.158,2.926-.949,1.107L10.5,66.637,8.916,72.41,7.809,78.026l.712,1.582V88.94L9,95.5l-.316,5.141.237,4.9.633.079h.079c-.079.554-.158,1.424-.158,1.424L9,108.317s-.712,1.5-.712,1.582a3.811,3.811,0,0,0,0,.949.357.357,0,0,0,.237.237,1.466,1.466,0,0,0,.554-.158c.079-.079,1.107-1.5,1.107-1.5l.554-.949.475.158s.158.237.079.316-.712,1.977-.712,1.977l-.87,1.5-.4.475a2.03,2.03,0,0,1,.158.4c.079.078.554.4.554.4a4.415,4.415,0,0,1,.633-.4A21.6,21.6,0,0,0,12,111.4l.554-1.661.079-.475a.781.781,0,0,1,.475.158.581.581,0,0,1,.079.475l-.791,2.216-1.028,1.424-.317.871s.316.079.554.158c.316.079,1.107-.554,1.186-.633s.633-1.028.633-1.028l.791-1.819.316-.237-.079,1.186-.475,1.5-.712,1.186.237.316.475.158,1.028-1.345.554-.87.079.4.633,3.085.316,1.345-.87,4.271.158,2.135-1.265,6.009L13.9,136.4l-.316,1.583-2.531,3.4-1.028,2.373-1.9,3.719-1.424,8.3-1.819,7.435-1.661,4.428s-.237,2.373-.237,2.531a13.122,13.122,0,0,1-.158,1.9,10.43,10.43,0,0,0-.949,1.265c-.079.158-1.345,3.4-1.345,3.4l-.158,2.214L.3,180.606l-.158.08L-.021,184.4l2.61.949-1.9-.712L.532,187.17l1.424,2.609,1.028,1.187,2.61.79,2.135-.317.712-.4,1.661.87,2.135.87,4.587-.079,4.666-.079,3.717-1.345,1.424-.554-.554-.475-.791-.949-.87-.791-3.164-.316-2.373-1.582s-2.135-1.107-2.452-1.186c-.079-.079-.554-.712-.949-1.186l-2.531,1.028,3.164-1.345v-.712l-1.107-2.373-.791-.316L13.74,179.5l2.847-.237.554-.949,4.983-9.57,2.61-6.564,1.107,10.44,1.819,6.8.475.712-.316.633v3.005h.554l.158.791,1.028,1.977.949,1.424,2.215.079,3.243-.158.4-2.215,1.265.316,3.085,1.5,1.265.949,4.35.316,4.192-.554,1.819-.633,2.373-.554v-.475l-.475.079-.158-1.028-1.424-.4s-2.768-.949-2.926-.949c-.237,0-3.638-.87-3.638-.87l-1.265-1.107-1.582-1.9.237-.158-.87-1.9-.633-1.265-.791-.158-.712-.791v-.316l1.186-.316.87-1.028-.316-2.135-.712-1.9-.554-.949L43,151.975l-.316-4.034-.158-7.2-.475-14,.633-11.389V113.7l-.475-.949.158-2.926,6.011-3.638-.316-4.508-1.107-7.909,2.847-9.886.633-.316-3.559-9.649L44.744,68.3l.475-2.847.237-7.039L45.3,55.96l-.87-3.322,1.345-.712.712-1.345,2.926-1.028,1.424-1.5,4.983-3.717.4-.949,1.345-1.107,2.768-4.508,2.689-4.35-2.056,3.322.158.4,3.243,7.039,1.977,2.452s3.559,3.006,4.192,3.48c.712.4,3.717,2.768,3.717,2.768l5.3,4.9,5.932,3.085-.158,1.9-.633,5.774-.475,8.779-.475,1.028-1.424,2.135-.4,1.265.87.554-2.294,6.485.949.633,1.582,2.215.554.87.158-.237L83.5,94.477l-.237,4.9-.633,5.378-.316,6.406.316,7.355.633,7.276.554,2.689-.475,1.345a1.921,1.921,0,0,1,.87.316c0,.079.316.158.791.316-.158-.079-.316-.079-.4-.158l.791,6.485.475,4.824,2.056,3.085,1.977,1.819,3.322,6.327,1.582,3.085-.079,5.853.475,9.174-.554,5.932-1.74,4.824-2.689,2.531s-1.107,1.5-1.582,2.215l.712.237-.712-.237-1.345.791-2.056.712-2.056.712-.712.712.237,1.265.4,2.294,2.768,1.424s3.875.316,4.113.316,3.955-.158,3.955-.158l1.661-.633.712-2.135,1.265-3.638,1.977-1.977,2.215-.949.712.554-.554,5.774-.237,2.135.475.237,1.107-.316.791-6.248,1.265-4.35v-1.186l-.791-2.768-1.424-1.265-2.452,2.373,2.294-2.215-.475-.633-.079-4.745.949-3.48,2.294,5.062,1.661,5.615v.949l-.712,2.847a23.258,23.258,0,0,0-.791,2.689,3.2,3.2,0,0,0,.554,1.265l1.819.87s.87.791,1.107.791,5.774-4.034,5.774-4.034l1.345-3.243-1.345-3.006-1.028-2.294.87-2.847,1.265-1.186,2.452.712,2.294,1.424.4-1.107-1.74-1.107-1.74-2.373-2.056-2.135-.316-.87-2.056.079-1.582-.237-.712.4-.475-.4-2.61-4.35-2.135-5.141-.633-8.779-1.424-6.169-.554-4.192,1.107-6.09.316-1.661-3.875.712,4.271-.791,4.034-.791.87.316.237-4.034.4-9.886.237-4.508.4-6.406-.316-7.039-.633-1.74-.158-.316-6.564-.712,6.96.791-.158-3.4-.237-2.926-.4-1.345-.237-5.536-.475-.87,1.028-1.819,1.582-1.74.4-.712.237-3.006,1.265-1.345.712.712-.158,1.028.633,3.8,1.661,5.378,1.582,8.146,1.186,5.457,1.977,7.276.633.633.316.949.316.633.791-.237.316-.316,1.345.554,2.294.316.949-.237.079.4-.079,1.345.4,1.345.316.158-.316,1.107.554.475-.237.87.554.316,1.265-1.74.633-.87.791-2.056-.316-1.9.554.633.237.949-.237,1.977.316.554h.475l.633-2.373-.158-1.977ZM36.126,22.358l.949,1.424-.87-1.345-.237-.158.158.079Zm26.02,3.48.712.475L64.6,27.5l-2.452-1.661ZM88.8,131.581c-.079-.079-.237-.079-.475-.158C88.564,131.5,88.722,131.5,88.8,131.581ZM109.76,45.61h-.079c.079,0,.237.079.316.079C109.918,45.689,109.839,45.61,109.76,45.61Zm-.158-.079-.079-.079ZM85.085,130.473l.712.237Zm.791.237c.237.079.554.158.791.237C86.429,130.869,86.113,130.79,85.876,130.711Zm1.661.475c-.237-.079-.475-.079-.712-.158C87.062,131.106,87.3,131.106,87.537,131.185Zm.079.079a1.489,1.489,0,0,1,.633.158A1.49,1.49,0,0,0,87.616,131.264Zm1.186.316h0" transform="translate(-554 405)" fill="#ebebeb"/>
    </g>
    <path id="Path_2" data-name="Path 2" d="M0,0H965.911V1083H0Z" transform="translate(636.089)" fill="#ebebeb"/>
    <path id="Path_3" data-name="Path 3" d="M1127,1115.751s-148.049-312.91-73.839-544.336,0-457.962,0-457.962-15.106-54.074-35.944-85.678,38.7-58.818,38.7-58.818h68.892Z" transform="translate(-481.558 -40.751)" fill="#ebebeb"/>
    <g id="temp" transform="translate(-97.438 606.089)">
      <path id="svg_text" d="M-194.616-14.641H-206.43a1.078,1.078,0,0,1-.763-.226.974.974,0,0,1-.239-.73h0v-3.159a.974.974,0,0,1,.239-.73,1.078,1.078,0,0,1,.763-.226h2.745v-8.925h-2.745a1.078,1.078,0,0,1-.763-.226.974.974,0,0,1-.239-.73h0v-3.213a.974.974,0,0,1,.239-.73,1.078,1.078,0,0,1,.763-.226h11.814a1.078,1.078,0,0,1,.763.226.974.974,0,0,1,.239.73h0v3.213a.974.974,0,0,1-.239.73,1.078,1.078,0,0,1-.763.226h-2.69v8.923h2.69a1.078,1.078,0,0,1,.763.226.974.974,0,0,1,.239.73h0v3.16a.974.974,0,0,1-.239.73A1.078,1.078,0,0,1-194.616-14.641Zm13.669,0h-8.762a1.078,1.078,0,0,1-.761-.226.974.974,0,0,1-.236-.73h0V-18.7a.974.974,0,0,1,.236-.73,1.078,1.078,0,0,1,.763-.226h7.458a.651.651,0,0,0,.541-.226.845.845,0,0,0,.179-.545h0a1.012,1.012,0,0,0-.179-.664.747.747,0,0,0-.541-.239h0l-4.159-.558a6.183,6.183,0,0,1-3.119-1.222,3.875,3.875,0,0,1-1.181-3.186h0v-2.789a4.16,4.16,0,0,1,1.525-3.466,6.623,6.623,0,0,1,4.214-1.208h7.764a1.078,1.078,0,0,1,.763.226.974.974,0,0,1,.239.73h0v3.16a.974.974,0,0,1-.239.73,1.078,1.078,0,0,1-.763.226h-6.46a.692.692,0,0,0-.554.226.844.844,0,0,0-.194.571h0a.9.9,0,0,0,.194.584.749.749,0,0,0,.554.266h0l4.131.531A6.269,6.269,0,0,1-176.4-25.29a3.853,3.853,0,0,1,1.193,3.187h0v2.788a4.144,4.144,0,0,1-1.539,3.466A6.634,6.634,0,0,1-180.946-14.641Zm16-13.544h0l-1.3,4.036h4.356l-1.306-4.036a1.008,1.008,0,0,0-.239-.343.435.435,0,0,0-.291-.106h-.693a.435.435,0,0,0-.291.106,1.006,1.006,0,0,0-.232.343Zm-1.581,8.87V-15.6a.974.974,0,0,1-.239.73,1.078,1.078,0,0,1-.76.226H-171.6a1.078,1.078,0,0,1-.763-.226.974.974,0,0,1-.239-.73h0v-7.011a7.546,7.546,0,0,1,.263-1.832,19.606,19.606,0,0,1,.818-2.417h0l2.412-6.029a1.252,1.252,0,0,1,.513-.664,1.705,1.705,0,0,1,.9-.213h7.458a1.646,1.646,0,0,1,.873.213,1.252,1.252,0,0,1,.513.664h0l2.412,6.029a19.606,19.606,0,0,1,.818,2.417,7.546,7.546,0,0,1,.263,1.832h0V-15.6a.974.974,0,0,1-.236.73,1.078,1.078,0,0,1-.759.226h-4.187a1.239,1.239,0,0,1-.818-.226.912.912,0,0,1-.263-.73h0v-3.718Zm19.88,4.674h-4.3a1.078,1.078,0,0,1-.763-.226.974.974,0,0,1-.236-.73h0V-32.806a.974.974,0,0,1,.236-.73,1.078,1.078,0,0,1,.763-.226h4.3a1.078,1.078,0,0,1,.763.226.974.974,0,0,1,.236.73h0V-26.7h1.109l2.856-6.188a1.338,1.338,0,0,1,.527-.677,1.656,1.656,0,0,1,.86-.2h4.27a.752.752,0,0,1,.638.226.633.633,0,0,1-.027.651h0l-2.828,6.188a3.545,3.545,0,0,1,2.481,1.049,3.547,3.547,0,0,1,.929,2.563h0V-15.6a.974.974,0,0,1-.236.73,1.078,1.078,0,0,1-.763.23h-4.27a1.078,1.078,0,0,1-.763-.226.974.974,0,0,1-.236-.73h0v-5.179a.938.938,0,0,0-.222-.664.865.865,0,0,0-.665-.239h-3.66V-15.6a.974.974,0,0,1-.236.73A1.078,1.078,0,0,1-146.649-14.641Zm30.638,0h-8.733a8.223,8.223,0,0,1-5.143-1.328,4.9,4.9,0,0,1-1.678-4.09h0v-8.287a4.9,4.9,0,0,1,1.677-4.09,8.225,8.225,0,0,1,5.143-1.328h6.932a1.078,1.078,0,0,1,.763.226.974.974,0,0,1,.236.73h0v3.213a.974.974,0,0,1-.236.73,1.078,1.078,0,0,1-.763.226h-5.767a2.029,2.029,0,0,0-1.276.332,1.2,1.2,0,0,0-.418,1h0v6.347a1.337,1.337,0,0,0,.319.982,1.3,1.3,0,0,0,.955.319h2.69V-23.8a.974.974,0,0,1,.236-.73,1.078,1.078,0,0,1,.763-.226h4.3a1.078,1.078,0,0,1,.763.226.974.974,0,0,1,.236.73h0V-15.6a.974.974,0,0,1-.236.73,1.078,1.078,0,0,1-.757.226Zm12.727-14.341h-2.079v3.4h2.079a1.113,1.113,0,0,0,.97-.358,1.519,1.519,0,0,0,.249-.89h0v-.9a1.519,1.519,0,0,0-.249-.89A1.113,1.113,0,0,0-103.284-28.982Zm-3.078,14.341h-4.27a1.078,1.078,0,0,1-.763-.226.974.974,0,0,1-.236-.73h0V-32.806a.974.974,0,0,1,.236-.73,1.078,1.078,0,0,1,.763-.226h9.233q3.1,0,4.284,1.235a4.443,4.443,0,0,1,1.178,3.2h0V-28.1a4.679,4.679,0,0,1-.347,1.9,2.118,2.118,0,0,1-1.206,1.129h0a3.707,3.707,0,0,1,2.425,1.168,3.8,3.8,0,0,1,.929,2.682h0v5.63a.974.974,0,0,1-.236.73,1.078,1.078,0,0,1-.762.226h-4.3a1.078,1.078,0,0,1-.767-.226.974.974,0,0,1-.236-.73h0v-4.063a1.317,1.317,0,0,0-.236-.863,1.025,1.025,0,0,0-.818-.279h-3.882V-15.6a.974.974,0,0,1-.236.73A1.078,1.078,0,0,1-106.362-14.641Zm22.57-13.544h0l-1.3,4.036h4.351l-1.3-4.036a1.008,1.008,0,0,0-.236-.343.435.435,0,0,0-.291-.106h-.693a.435.435,0,0,0-.291.106A1.008,1.008,0,0,0-83.792-28.185Zm-1.581,8.87V-15.6a.974.974,0,0,1-.236.73,1.078,1.078,0,0,1-.763.226h-4.076a1.078,1.078,0,0,1-.763-.226.974.974,0,0,1-.236-.73h0v-7.011a7.546,7.546,0,0,1,.263-1.832,19.6,19.6,0,0,1,.818-2.417h0l2.412-6.029a1.252,1.252,0,0,1,.513-.664,1.705,1.705,0,0,1,.9-.213h7.458a1.646,1.646,0,0,1,.874.213,1.252,1.252,0,0,1,.513.664h0l2.412,6.029a19.606,19.606,0,0,1,.818,2.417,7.546,7.546,0,0,1,.263,1.832h0V-15.6a.974.974,0,0,1-.236.73,1.078,1.078,0,0,1-.76.226h-4.189a1.239,1.239,0,0,1-.818-.226.912.912,0,0,1-.263-.73h0v-3.718Zm19.742,4.674H-69.79a1.078,1.078,0,0,1-.763-.226.974.974,0,0,1-.236-.73h0V-32.806a.974.974,0,0,1,.236-.73,1.078,1.078,0,0,1,.763-.226h2.884a2.294,2.294,0,0,1,.9.159,2.153,2.153,0,0,1,.734.558h0l5.379,5.9v-5.658a.974.974,0,0,1,.236-.73,1.078,1.078,0,0,1,.763-.226h4.159a1.078,1.078,0,0,1,.763.226.974.974,0,0,1,.236.73h0V-15.6a.974.974,0,0,1-.236.73,1.078,1.078,0,0,1-.763.226h-4.159a1.078,1.078,0,0,1-.763-.226.974.974,0,0,1-.236-.73h0v-3.267l-4.742-5.5V-15.6a.974.974,0,0,1-.236.73A1.078,1.078,0,0,1-65.631-14.641Zm26.146,2.39h-4.27a1.078,1.078,0,0,1-.763-.226.974.974,0,0,1-.236-.73h0v-1.46q-3.217-.451-4.339-1.846A5.226,5.226,0,0,1-50.215-19.9h0v-8.817a6.261,6.261,0,0,1,.374-2.217,3.806,3.806,0,0,1,1.331-1.714,7.142,7.142,0,0,1,2.648-1.116,19.07,19.07,0,0,1,4.27-.4h0a18.881,18.881,0,0,1,4.256.4A7.137,7.137,0,0,1-34.7-32.648a3.806,3.806,0,0,1,1.331,1.714A6.261,6.261,0,0,1-33-28.716h0V-19.9a6.717,6.717,0,0,1-.249,1.872,3.782,3.782,0,0,1-.86,1.527,5.04,5.04,0,0,1-1.677,1.143,9.758,9.758,0,0,1-2.7.689h0v1.46a.974.974,0,0,1-.236.73,1.078,1.078,0,0,1-.763.226Zm-4.436-15.483v7.25a1.128,1.128,0,0,0,.418.89,3.294,3.294,0,0,0,1.913.358h0a3.288,3.288,0,0,0,1.913-.358,1.128,1.128,0,0,0,.418-.89h0v-7.25a1.1,1.1,0,0,0-.418-.863,3.294,3.294,0,0,0-1.913-.358h0A3.288,3.288,0,0,0-43.5-28.6,1.1,1.1,0,0,0-43.921-27.734Zm26.257,13.093h-7.209a1.835,1.835,0,0,1-.874-.186,1.243,1.243,0,0,1-.541-.69h0L-29-22.024q-.249-.584-.418-1.022t-.277-.837a4.807,4.807,0,0,1-.153-.837q-.042-.438-.042-1.076h0v-7.01a.974.974,0,0,1,.239-.73,1.078,1.078,0,0,1,.763-.226h4.408a1.248,1.248,0,0,1,.8.226.887.887,0,0,1,.276.73h0v7.329a2.592,2.592,0,0,0,.055.531,3.719,3.719,0,0,0,.166.558h0l1.3,3.718a.77.77,0,0,0,.194.358.508.508,0,0,0,.333.093h.3a.508.508,0,0,0,.333-.093.771.771,0,0,0,.194-.358h0l1.3-3.744a3.72,3.72,0,0,0,.166-.558,2.591,2.591,0,0,0,.055-.531h0v-7.3a.974.974,0,0,1,.236-.73A1.078,1.078,0,0,1-18-33.762h4.356a1.078,1.078,0,0,1,.763.226.974.974,0,0,1,.236.73h0v7.011q0,.637-.042,1.076a4.806,4.806,0,0,1-.153.837q-.111.4-.277.837t-.418,1.022h0l-2.718,6.506a1.243,1.243,0,0,1-.541.69,1.835,1.835,0,0,1-.873.186Zm20.795,0H-8.683a1.077,1.077,0,0,1-.76-.226.974.974,0,0,1-.236-.73h0v-3.159a.974.974,0,0,1,.236-.73,1.077,1.077,0,0,1,.763-.226h2.745v-8.925H-8.68a1.077,1.077,0,0,1-.763-.226.974.974,0,0,1-.236-.73h0v-3.213a.974.974,0,0,1,.236-.73,1.078,1.078,0,0,1,.763-.226H3.133a1.077,1.077,0,0,1,.763.226.974.974,0,0,1,.239.73h0v3.213a.974.974,0,0,1-.239.73,1.077,1.077,0,0,1-.763.226H.444v8.923h2.69a1.077,1.077,0,0,1,.763.226.974.974,0,0,1,.239.73h0v3.16a.974.974,0,0,1-.239.73A1.077,1.077,0,0,1,3.131-14.641Zm13.669,0H8.039a1.078,1.078,0,0,1-.763-.226.974.974,0,0,1-.236-.73h0V-18.7a.974.974,0,0,1,.236-.73,1.078,1.078,0,0,1,.763-.226H15.5a.651.651,0,0,0,.541-.226.845.845,0,0,0,.179-.545h0a1.012,1.012,0,0,0-.179-.664.747.747,0,0,0-.541-.239h0l-4.159-.558a6.183,6.183,0,0,1-3.121-1.221A3.879,3.879,0,0,1,7.04-26.3h0v-2.789a4.16,4.16,0,0,1,1.525-3.466,6.624,6.624,0,0,1,4.214-1.208h7.764a1.078,1.078,0,0,1,.763.226.974.974,0,0,1,.239.73h0v3.16a.974.974,0,0,1-.239.73,1.078,1.078,0,0,1-.763.226H14.083a.692.692,0,0,0-.554.226.845.845,0,0,0-.194.571h0a.9.9,0,0,0,.194.584.749.749,0,0,0,.554.266h0l4.131.531a6.269,6.269,0,0,1,3.133,1.222A3.853,3.853,0,0,1,22.541-22.1h0v2.788A4.144,4.144,0,0,1,21-15.849,6.634,6.634,0,0,1,16.8-14.641Zm17.909,0H30.218a1.078,1.078,0,0,1-.759-.226.974.974,0,0,1-.239-.73h0v-13.04H25.145a1.078,1.078,0,0,1-.763-.226.974.974,0,0,1-.236-.73h0v-3.213a.974.974,0,0,1,.236-.73,1.078,1.078,0,0,1,.763-.226h14.64a1.078,1.078,0,0,1,.763.226.974.974,0,0,1,.236.73h0v3.213a.974.974,0,0,1-.236.73,1.078,1.078,0,0,1-.763.226H35.708V-15.6a.974.974,0,0,1-.236.73A1.078,1.078,0,0,1,34.71-14.641Z" transform="translate(335.192 215.369)" fill="#fff"/>
    </g>
  </g>
</svg>
