<svg xmlns="http://www.w3.org/2000/svg" xmlns:xlink="http://www.w3.org/1999/xlink" width="1920" height="1080" viewBox="0 0 1920 1080">
  <defs>
    <clipPath id="clip-Web_1920_1">
      <rect width="1920" height="1080"/>
    </clipPath>
  </defs>
  <g id="Web_1920_1" data-name="Web 1920 – 1" clip-path="url(#clip-Web_1920_1)">
    <rect width="1920" height="1080" fill="#3d3ddb"/>
    <g id="temp" transform="translate(-87.911 844.089)">
      <path id="svg_text" d="M-194.616-14.641H-206.43a1.078,1.078,0,0,1-.763-.226.974.974,0,0,1-.239-.73h0v-3.159a.974.974,0,0,1,.239-.73,1.078,1.078,0,0,1,.763-.226h2.745v-8.925h-2.745a1.078,1.078,0,0,1-.763-.226.974.974,0,0,1-.239-.73h0v-3.213a.974.974,0,0,1,.239-.73,1.078,1.078,0,0,1,.763-.226h11.814a1.078,1.078,0,0,1,.763.226.974.974,0,0,1,.239.73h0v3.213a.974.974,0,0,1-.239.73,1.078,1.078,0,0,1-.763.226h-2.69v8.923h2.69a1.078,1.078,0,0,1,.763.226.974.974,0,0,1,.239.73h0v3.16a.974.974,0,0,1-.239.73A1.078,1.078,0,0,1-194.616-14.641Zm13.669,0h-8.762a1.078,1.078,0,0,1-.761-.226.974.974,0,0,1-.236-.73h0V-18.7a.974.974,0,0,1,.236-.73,1.078,1.078,0,0,1,.763-.226h7.458a.651.651,0,0,0,.541-.226.845.845,0,0,0,.179-.545h0a1.012,1.012,0,0,0-.179-.664.747.747,0,0,0-.541-.239h0l-4.159-.558a6.183,6.183,0,0,1-3.119-1.222,3.875,3.875,0,0,1-1.181-3.186h0v-2.789a4.16,4.16,0,0,1,1.525-3.466,6.623,6.623,0,0,1,4.214-1.208h7.764a1.078,1.078,0,0,1,.763.226.974.974,0,0,1,.239.73h0v3.16a.974.974,0,0,1-.239.73,1.078,1.078,0,0,1-.763.226h-6.46a.692.692,0,0,0-.554.226.844.844,0,0,0-.194.571h0a.9.9,0,0,0,.194.584.749.749,0,0,0,.554.266h0l4.131.531A6.269,6.269,0,0,1-176.4-25.29a3.853,3.853,0,0,1,1.193,3.187h0v2.788a4.144,4.144,0,0,1-1.539,3.466A6.634,6.634,0,0,1-180.946-14.641Zm16-13.544h0l-1.3,4.036h4.356l-1.306-4.036a1.008,1.008,0,0,0-.239-.343.435.435,0,0,0-.291-.106h-.693a.435.435,0,0,0-.291.106,1.006,1.006,0,0,0-.232.343Zm-1.581,8.87V-15.6a.974.974,0,0,1-.239.73,1.078,1.078,0,0,1-.76.226H-171.6a1.078,1.078,0,0,1-.763-.226.974.974,0,0,1-.239-.73h0v-7.011a7.546,7.546,0,0,1,.263-1.832,19.606,19.606,0,0,1,.818-2.417h0l2.412-6.029a1.252,1.252,0,0,1,.513-.664,1.705,1.705,0,0,1,.9-.213h7.458a1.646,1.646,0,0,1,.873.213,1.252,1.252,0,0,1,.513.664h0l2.412,6.029a19.606,19.606,0,0,1,.818,2.417,7.546,7.546,0,0,1,.263,1.832h0V-15.6a.974.974,0,0,1-.236.73,1.078,1.078,0,0,1-.759.226h-4.187a1.239,1.239,0,0,1-.818-.226.912.912,0,0,1-.263-.73h0v-3.718Zm19.88,4.674h-4.3a1.078,1.078,0,0,1-.763-.226.974.974,0,0,1-.236-.73h0V-32.806a.974.974,0,0,1,.236-.73,1.078,1.078,0,0,1,.763-.226h4.3a1.078,1.078,0,0,1,.763.226.974.974,0,0,1,.236.73h0V-26.7h1.109l2.856-6.188a1.338,1.338,0,0,1,.527-.677,1.656,1.656,0,0,1,.86-.2h4.27a.752.752,0,0,1,.638.226.633.633,0,0,1-.027.651h0l-2.828,6.188a3.545,3.545,0,0,1,2.481,1.049,3.547,3.547,0,0,1,.929,2.563h0V-15.6a.974.974,0,0,1-.236.73,1.078,1.078,0,0,1-.763.23h-4.27a1.078,1.078,0,0,1-.763-.226.974.974,0,0,1-.236-.73h0v-5.179a.938.938,0,0,0-.222-.664.865.865,0,0,0-.665-.239h-3.66V-15.6a.974.974,0,0,1-.236.73A1.078,1.078,0,0,1-146.649-14.641Zm30.638,0h-8.733a8.223,8.223,0,0,1-5.143-1.328,4.9,4.9,0,0,1-1.678-4.09h0v-8.287a4.9,4.9,0,0,1,1.677-4.09,8.225,8.225,0,0,1,5.143-1.328h6.932a1.078,1.078,0,0,1,.763.226.974.974,0,0,1,.236.73h0v3.213a.974.974,0,0,1-.236.73,1.078,1.078,0,0,1-.763.226h-5.767a2.029,2.029,0,0,0-1.276.332,1.2,1.2,0,0,0-.418,1h0v6.347a1.337,1.337,0,0,0,.319.982,1.3,1.3,0,0,0,.955.319h2.69V-23.8a.974.974,0,0,1,.236-.73,1.078,1.078,0,0,1,.763-.226h4.3a1.078,1.078,0,0,1,.763.226.974.974,0,0,1,.236.73h0V-15.6a.974.974,0,0,1-.236.73,1.078,1.078,0,0,1-.757.226Zm12.727-14.341h-2.079v3.4h2.079a1.113,1.113,0,0,0,.97-.358,1.519,1.519,0,0,0,.249-.89h0v-.9a1.519,1.519,0,0,0-.249-.89A1.113,1.113,0,0,0-103.284-28.982Zm-3.078,14.341h-4.27a1.078,1.078,0,0,1-.763-.226.974.974,0,0,1-.236-.73h0V-32.806a.974.974,0,0,1,.236-.73,1.078,1.078,0,0,1,.763-.226h9.233q3.1,0,4.284,1.235a4.443,4.443,0,0,1,1.178,3.2h0V-28.1a4.679,4.679,0,0,1-.347,1.9,2.118,2.118,0,0,1-1.206,1.129h0a3.707,3.707,0,0,1,2.425,1.168,3.8,3.8,0,0,1,.929,2.682h0v5.63a.974.974,0,0,1-.236.73,1.078,1.078,0,0,1-.762.226h-4.3a1.078,1.078,0,0,1-.767-.226.974.974,0,0,1-.236-.73h0v-4.063a1.317,1.317,0,0,0-.236-.863,1.025,1.025,0,0,0-.818-.279h-3.882V-15.6a.974.974,0,0,1-.236.73A1.078,1.078,0,0,1-106.362-14.641Zm22.57-13.544h0l-1.3,4.036h4.351l-1.3-4.036a1.008,1.008,0,0,0-.236-.343.435.435,0,0,0-.291-.106h-.693a.435.435,0,0,0-.291.106A1.008,1.008,0,0,0-83.792-28.185Zm-1.581,8.87V-15.6a.974.974,0,0,1-.236.73,1.078,1.078,0,0,1-.763.226h-4.076a1.078,1.078,0,0,1-.763-.226.974.974,0,0,1-.236-.73h0v-7.011a7.546,7.546,0,0,1,.263-1.832,19.6,19.6,0,0,1,.818-2.417h0l2.412-6.029a1.252,1.252,0,0,1,.513-.664,1.705,1.705,0,0,1,.9-.213h7.458a1.646,1.646,0,0,1,.874.213,1.252,1.252,0,0,1,.513.664h0l2.412,6.029a19.606,19.606,0,0,1,.818,2.417,7.546,7.546,0,0,1,.263,1.832h0V-15.6a.974.974,0,0,1-.236.73,1.078,1.078,0,0,1-.76.226h-4.189a1.239,1.239,0,0,1-.818-.226.912.912,0,0,1-.263-.73h0v-3.718Zm19.742,4.674H-69.79a1.078,1.078,0,0,1-.763-.226.974.974,0,0,1-.236-.73h0V-32.806a.974.974,0,0,1,.236-.73,1.078,1.078,0,0,1,.763-.226h2.884a2.294,2.294,0,0,1,.9.159,2.153,2.153,0,0,1,.734.558h0l5.379,5.9v-5.658a.974.974,0,0,1,.236-.73,1.078,1.078,0,0,1,.763-.226h4.159a1.078,1.078,0,0,1,.763.226.974.974,0,0,1,.236.73h0V-15.6a.974.974,0,0,1-.236.73,1.078,1.078,0,0,1-.763.226h-4.159a1.078,1.078,0,0,1-.763-.226.974.974,0,0,1-.236-.73h0v-3.267l-4.742-5.5V-15.6a.974.974,0,0,1-.236.73A1.078,1.078,0,0,1-65.631-14.641Zm26.146,2.39h-4.27a1.078,1.078,0,0,1-.763-.226.974.974,0,0,1-.236-.73h0v-1.46q-3.217-.451-4.339-1.846A5.226,5.226,0,0,1-50.215-19.9h0v-8.817a6.261,6.261,0,0,1,.374-2.217,3.806,3.806,0,0,1,1.331-1.714,7.142,7.142,0,0,1,2.648-1.116,19.07,19.07,0,0,1,4.27-.4h0a18.881,18.881,0,0,1,4.256.4A7.137,7.137,0,0,1-34.7-32.648a3.806,3.806,0,0,1,1.331,1.714A6.261,6.261,0,0,1-33-28.716h0V-19.9a6.717,6.717,0,0,1-.249,1.872,3.782,3.782,0,0,1-.86,1.527,5.04,5.04,0,0,1-1.677,1.143,9.758,9.758,0,0,1-2.7.689h0v1.46a.974.974,0,0,1-.236.73,1.078,1.078,0,0,1-.763.226Zm-4.436-15.483v7.25a1.128,1.128,0,0,0,.418.89,3.294,3.294,0,0,0,1.913.358h0a3.288,3.288,0,0,0,1.913-.358,1.128,1.128,0,0,0,.418-.89h0v-7.25a1.1,1.1,0,0,0-.418-.863,3.294,3.294,0,0,0-1.913-.358h0A3.288,3.288,0,0,0-43.5-28.6,1.1,1.1,0,0,0-43.921-27.734Zm26.257,13.093h-7.209a1.835,1.835,0,0,1-.874-.186,1.243,1.243,0,0,1-.541-.69h0L-29-22.024q-.249-.584-.418-1.022t-.277-.837a4.807,4.807,0,0,1-.153-.837q-.042-.438-.042-1.076h0v-7.01a.974.974,0,0,1,.239-.73,1.078,1.078,0,0,1,.763-.226h4.408a1.248,1.248,0,0,1,.8.226.887.887,0,0,1,.276.73h0v7.329a2.592,2.592,0,0,0,.055.531,3.719,3.719,0,0,0,.166.558h0l1.3,3.718a.77.77,0,0,0,.194.358.508.508,0,0,0,.333.093h.3a.508.508,0,0,0,.333-.093.771.771,0,0,0,.194-.358h0l1.3-3.744a3.72,3.72,0,0,0,.166-.558,2.591,2.591,0,0,0,.055-.531h0v-7.3a.974.974,0,0,1,.236-.73A1.078,1.078,0,0,1-18-33.762h4.356a1.078,1.078,0,0,1,.763.226.974.974,0,0,1,.236.73h0v7.011q0,.637-.042,1.076a4.806,4.806,0,0,1-.153.837q-.111.4-.277.837t-.418,1.022h0l-2.718,6.506a1.243,1.243,0,0,1-.541.69,1.835,1.835,0,0,1-.873.186Zm20.795,0H-8.683a1.077,1.077,0,0,1-.76-.226.974.974,0,0,1-.236-.73h0v-3.159a.974.974,0,0,1,.236-.73,1.077,1.077,0,0,1,.763-.226h2.745v-8.925H-8.68a1.077,1.077,0,0,1-.763-.226.974.974,0,0,1-.236-.73h0v-3.213a.974.974,0,0,1,.236-.73,1.078,1.078,0,0,1,.763-.226H3.133a1.077,1.077,0,0,1,.763.226.974.974,0,0,1,.239.73h0v3.213a.974.974,0,0,1-.239.73,1.077,1.077,0,0,1-.763.226H.444v8.923h2.69a1.077,1.077,0,0,1,.763.226.974.974,0,0,1,.239.73h0v3.16a.974.974,0,0,1-.239.73A1.077,1.077,0,0,1,3.131-14.641Zm13.669,0H8.039a1.078,1.078,0,0,1-.763-.226.974.974,0,0,1-.236-.73h0V-18.7a.974.974,0,0,1,.236-.73,1.078,1.078,0,0,1,.763-.226H15.5a.651.651,0,0,0,.541-.226.845.845,0,0,0,.179-.545h0a1.012,1.012,0,0,0-.179-.664.747.747,0,0,0-.541-.239h0l-4.159-.558a6.183,6.183,0,0,1-3.121-1.221A3.879,3.879,0,0,1,7.04-26.3h0v-2.789a4.16,4.16,0,0,1,1.525-3.466,6.624,6.624,0,0,1,4.214-1.208h7.764a1.078,1.078,0,0,1,.763.226.974.974,0,0,1,.239.73h0v3.16a.974.974,0,0,1-.239.73,1.078,1.078,0,0,1-.763.226H14.083a.692.692,0,0,0-.554.226.845.845,0,0,0-.194.571h0a.9.9,0,0,0,.194.584.749.749,0,0,0,.554.266h0l4.131.531a6.269,6.269,0,0,1,3.133,1.222A3.853,3.853,0,0,1,22.541-22.1h0v2.788A4.144,4.144,0,0,1,21-15.849,6.634,6.634,0,0,1,16.8-14.641Zm17.909,0H30.218a1.078,1.078,0,0,1-.759-.226.974.974,0,0,1-.239-.73h0v-13.04H25.145a1.078,1.078,0,0,1-.763-.226.974.974,0,0,1-.236-.73h0v-3.213a.974.974,0,0,1,.236-.73,1.078,1.078,0,0,1,.763-.226h14.64a1.078,1.078,0,0,1,.763.226.974.974,0,0,1,.236.73h0v3.213a.974.974,0,0,1-.236.73,1.078,1.078,0,0,1-.763.226H35.708V-15.6a.974.974,0,0,1-.236.73A1.078,1.078,0,0,1,34.71-14.641Z" transform="translate(335.192 215.369)" fill="#fff"/>
    </g>
    <g id="g3856" transform="translate(923.451 -29.561)">
      <path id="path3858" d="M280.706,224.361l-4.487-3.989-1.662-1.33.166-.332-.5-2.659-2.493-8.975s-2.161-3.823-2.825-4.155c-.5-.5-.332-1.994-.332-1.994l-.5-8.809-2.161-2.992-.332-1.994-.332-7.645-1.994-8.144s.5-2.327.5-2.825c0-.665,1.33-7.812,1.33-7.812l-.831-5.817-2.659-10.3-.831-2.825.831-5.152.665-8.975-1.662-7.313a18.871,18.871,0,0,1-1.994-1.994h-.166c-1.492-1.67-3.49-3.5-3.654-3.832-.333-.5-7.482-6.149-7.482-6.149l-5.817-2.659-1.33-1.33.166-3.49c.5,0,2.161-2.161,1.828-3.324-.332-1.33-.332-2.825-.5-3.657a3.261,3.261,0,0,1,.166-2.493,3.13,3.13,0,0,0,.5-2.493,6.273,6.273,0,0,0-1-2.327,3.857,3.857,0,0,0-.5-2.327,5.519,5.519,0,0,0-1.828-1.828l.166-3.823-.5-5.817-1.33-8.643L234.5,57.981l-5.152-3.656-5.319-1-6.815-1.662-4.986,2.327-5.817.166-2.327,2.825s-1.5,1.828-1.662,2.161l-.831,2.493.665.831-.332,1-3.158,7.479-.5,4.487.831,1-.5,2.327-3.324,3.823-.332,3.158,1.33.332,1.994.5-.5,1.662.5,1.163-.166,1.5v6.149l1.662,1.33,7.479,1.5-2.992,3.989,2.825-3.656-3.823.332-5.651-.665s-4.487-1.33-4.986-1.33c-.332,0-2.825,1.5-3.324,1.662a16.065,16.065,0,0,0-1.994,1.163l-4.321.665s-2.992-.5-3.823-1.163a14.043,14.043,0,0,0-2.992-.831,26.831,26.831,0,0,1-4.654-1.994,24.934,24.934,0,0,1-2.493-3.49s-3.989-.5-4.654-.5c-.5,0-3.324-2.161-3.324-2.161l-1.994-4.321s-4.155-1.5-4.986-1.33c-.671.155-1.834-1.342-2.336-1.839l-.166-1v.665h-.166l.332-4.654s-2.825-5.817-3.324-6.316c-.332-.5-2.992-6.981-3.989-8.975a34.188,34.188,0,0,1-1.994-5.319l-1.33-2.825v-.166l.332,1.994-1.163-6.648.332-7.479.831-5.817,1.828-5.983.166-1.994V23.4l.665-.665-.332-1.828s.166-8.476.332-8.809a6.85,6.85,0,0,0-.166-1.994h-1.5l-.5.833-1.332,3.324-.661-2.659-.835-2.659-.661-1.5-.5-2.659.169-2.659-.83-2.161h-1.829l-.83,2.161-.666-.5-1,2.327.831,4.487-.831,7.313-1.33,3.324-.5-1.163-1.662-1.163-1,.5,1.163,2.327a18,18,0,0,1-1.163,2.992,29.357,29.357,0,0,0-1.33,4.155l-.665,5.319-1,3.158-1.5,1.662-.5,2.992-.665.5-1.662,4.321-2.161,4.654,5.485,1.33-5.485-1.33-1,1-12.3,18.781s-5.152,6.981-5.485,7.313a10.275,10.275,0,0,0-.665,2.659s-.166,1.662-.166,1.33c0-.5-1.994.5-1.994.5l-3.158,2.161L92.887,85.4a25.96,25.96,0,0,1-2.825-1.163,8.109,8.109,0,0,0-2.825.166c-.332.166-.5,1.662-.5,1.662l-2.825,1.33-1.828-.831-1.994.332-1.33-2.659,1,2.161a2.413,2.413,0,0,1,1,.166l1.828-1.5v-1.5l-.5-3.657,1.33-6.316.665-2.659.166-3.49-1.5-2.659-.5-.831.166-2.825.5-2.825-.332-1.5-2.493-2.825-1.5-3.324-.332-1,.332-1.5,1.163-1.5a11.033,11.033,0,0,1,.166-2.161,8.164,8.164,0,0,0-.5-2.493,33.494,33.494,0,0,0-3.158-2.161c-.5-.332-1.828.332-1.828.332l-3.49-.5-6.98-1.828L59.977,37.2l-3.823,1.33-5.816.831L46.35,41.018l-4.155,5.651-1.662,5.485L39.7,61.461l.831,6.149,3.656,8.476,3.989,3.989,1.828.831-.5-.166.5.831-1,.5-1.33,2.161-1.994,2.825-.332,2.825-3.49,2.824-1.5,3.987-1.329,1.332-1.5,5.816-3.158,4.484-2.493,4.822-2.161,6.314-2.493,3.326L26.073,128.6l.332,6.149-1.994,2.327-2.327,2.992L18.76,152.2,16.433,164l1.5,3.324V186.94l1,13.795-.665,10.8.5,10.3,1.33.166h.166c-.166,1.163-.332,2.992-.332,2.992l-1,2.659s-1.5,3.158-1.5,3.324a8.009,8.009,0,0,0,0,1.994.749.749,0,0,0,.5.5,3.081,3.081,0,0,0,1.163-.332c.166-.166,2.327-3.158,2.327-3.158l1.163-1.994,1,.332s.332.5.166.665-1.5,4.155-1.5,4.155L20.422,236.3l-.831,1a4.266,4.266,0,0,1,.332.831c.166.164,1.163.83,1.163.83a9.278,9.278,0,0,1,1.33-.831,45.382,45.382,0,0,0,2.825-3.989l1.163-3.49.166-1a1.641,1.641,0,0,1,1,.332,1.221,1.221,0,0,1,.166,1l-1.662,4.658-2.161,2.993-.665,1.829s.665.166,1.163.332c.665.166,2.327-1.163,2.493-1.33s1.33-2.161,1.33-2.161l1.662-3.823.665-.5-.166,2.493-1,3.158-1.5,2.493.5.665,1,.332,2.161-2.825,1.163-1.828.166.831,1.33,6.482.665,2.825-1.828,8.975.332,4.488L30.726,273.7l-1.5,12.965-.665,3.326-5.319,7.144-2.161,4.986L17.1,309.935l-2.992,17.449-3.822,15.625-3.49,9.306s-.5,4.986-.5,5.319a27.576,27.576,0,0,1-.332,3.989,21.917,21.917,0,0,0-1.994,2.659c-.166.332-2.825,7.147-2.825,7.147L.81,376.082l-.166,3.49-.332.169-.332,7.81,5.485,1.994-3.989-1.5-.332,5.319,2.992,5.483,2.161,2.5,5.484,1.66,4.488-.666,1.5-.83,3.49,1.828,4.487,1.828L35.38,405l9.806-.166L53,402.009l2.992-1.163-1.163-1-1.662-1.994-1.828-1.662-6.648-.665L39.7,392.2s-4.487-2.327-5.152-2.493c-.166-.166-1.163-1.5-1.994-2.493l-5.319,2.161,6.648-2.825v-1.5l-2.327-4.986L29.9,379.4l-1-2.161,5.983-.5,1.163-1.994L46.516,354.64,52,340.846l2.327,21.939,3.823,14.293,1,1.5-.665,1.33v6.316h1.163l.332,1.662,2.161,4.155,1.994,2.992,4.654.166,6.815-.332.831-4.654,2.659.665,6.482,3.158,2.659,1.995,9.141.665,8.809-1.163,3.823-1.33,4.986-1.163v-1l-1,.166-.332-2.161-2.992-.831s-5.817-1.994-6.149-1.994c-.5,0-7.645-1.828-7.645-1.828l-2.659-2.327-3.324-3.989.5-.332-1.828-3.989-1.33-2.659-1.662-.332-1.5-1.662v-.665l2.493-.665,1.828-2.161-.665-4.488-1.5-3.989-1.163-1.995,4.321-36.731-.665-8.476L89.4,295.8l-1-29.418,1.33-23.934v-3.49l-1-1.994.332-6.149,12.631-7.645-.665-9.474L98.7,197.079l5.983-20.775,1.33-.665-7.479-20.277-4.487-11.8,1-5.983.5-14.792-.332-5.152-1.828-6.981,2.825-1.5,1.5-2.825,6.149-2.161,2.992-3.158L117.32,93.2l.831-1.994,2.825-2.327,5.817-9.474,5.651-9.141-4.321,6.981.332.831L135.27,92.87l4.155,5.152s7.479,6.316,8.809,7.313c1.5.831,7.812,5.817,7.812,5.817l11.136,10.3,12.465,6.482-.332,3.989-1.33,12.133-1,18.449-1,2.161L173,169.157l-.831,2.659L174,172.98l-4.82,13.629,1.994,1.33,3.324,4.654,1.163,1.828.332-.5-.5,4.654-.5,10.3-1.33,11.3L173,233.645l.665,15.457,1.33,15.291,1.163,5.651-1,2.825a4.036,4.036,0,0,1,1.828.665c0,.166.665.332,1.662.665-.332-.166-.665-.166-.831-.332l1.662,13.629,1,10.138,4.321,6.482,4.155,3.823,6.981,13.3,3.324,6.482-.166,12.3,1,19.28-1.163,12.465L195.27,381.9l-5.651,5.319s-2.327,3.158-3.324,4.654l1.5.5-1.5-.5-2.825,1.662-4.321,1.5-4.321,1.5-1.5,1.5.5,2.659.831,4.82,5.817,2.992s8.144.665,8.643.665,8.31-.332,8.31-.332l3.49-1.33,1.5-4.487,2.659-7.645,4.155-4.155,4.654-1.994,1.5,1.163-1.163,12.133-.5,4.487,1,.5,2.327-.665,1.662-13.13,2.659-9.141v-2.493l-1.662-5.817-2.992-2.659-5.152,4.986,4.82-4.654-1-1.33-.166-9.972,1.994-7.313,4.82,10.637,3.49,11.8v1.994l-1.5,5.983a48.875,48.875,0,0,0-1.662,5.651,6.718,6.718,0,0,0,1.163,2.659l3.823,1.828s1.828,1.662,2.327,1.662,12.133-8.476,12.133-8.476l2.825-6.815-2.825-6.316-2.161-4.82,1.828-5.983,2.659-2.493,5.152,1.5,4.82,2.992.831-2.327-3.656-2.327-3.657-4.986-4.321-4.487-.665-1.828-4.321.166-3.324-.5-1.5.831-1-.831-5.485-9.141-4.487-10.8-1.33-18.449-2.992-12.964-1.163-8.809,2.327-12.8.665-3.49-8.144,1.5,8.975-1.662,8.476-1.662,1.828.665.5-8.476.831-20.775.5-9.474.831-13.463-.665-14.792-1.33-3.656-.332-.665-13.795-1.5,14.626,1.662L232,194.918l-.5-6.149-.831-2.825-.5-11.634-1-1.828,2.161-3.823L234.661,165l.831-1.5.5-6.316,2.659-2.825,1.5,1.5-.332,2.161,1.33,7.978,3.49,11.3,3.324,17.119,2.493,11.468,4.155,15.291,1.33,1.33.665,1.994.665,1.33,1.662-.5.665-.665,2.825,1.163,4.82.665,1.994-.5.166.831-.166,2.825.831,2.825.665.332-.665,2.327,1.163,1-.5,1.828,1.163.665,2.659-3.656,1.33-1.828,1.662-4.321-.665-3.989,1.163,1.33.5,1.994-.5,4.155.665,1.163h1l1.33-4.986-.332-4.155ZM75.941,47.022l1.994,2.992-1.828-2.825-.5-.332.332.166Zm54.679,7.313,1.5,1,3.656,2.493-5.152-3.49ZM186.635,276.55c-.166-.166-.5-.166-1-.332C186.137,276.383,186.469,276.383,186.635,276.55ZM230.68,95.885h-.166c.166,0,.5.166.665.166C231.012,96.051,230.846,95.885,230.68,95.885Zm-.332-.166-.166-.166Zm-51.522,178.5,1.5.5Zm1.662.5c.5.166,1.163.332,1.662.5C181.651,275.052,180.986,274.886,180.487,274.72Zm3.49,1c-.5-.166-1-.166-1.5-.332C182.98,275.551,183.479,275.551,183.977,275.717Zm.166.166a3.13,3.13,0,0,1,1.33.332A3.132,3.132,0,0,0,184.144,275.883Zm2.493.665h0" transform="translate(-554 405)" fill="#ebebeb"/>
    </g>
    <path id="Path_2" data-name="Path 2" d="M0,0H793V1083H0Z" transform="translate(1127)" fill="#ebebeb"/>
    <path id="Path_1" data-name="Path 1" d="M1129.442,269.231Z" fill="none" stroke="#707070" stroke-width="1"/>
    <path id="Path_3" data-name="Path 3" d="M1127,1115.751s-148.049-312.91-73.839-544.336,0-457.962,0-457.962-15.106-54.074-35.944-85.678,38.7-58.818,38.7-58.818h68.892Z" transform="translate(2.442 -28.751)" fill="#ebebeb"/>
  </g>
</svg>
